STARTFONT 2.1
COMMENT $XConsortium: luBIS14.bdf,v 1.7 94/04/02 16:22:49 gildea Exp $
COMMENT  (c) Copyright Bigelow & Holmes 1986, 1985. Lucida is a registered
COMMENT  trademark of Bigelow & Holmes. See LEGAL NOTICE file for terms 
COMMENT  of the license. 
COMMENT  
COMMENT  Translation to ISO8859-2 by Cub Soft;  Petr.Kolar@vslib.cz
COMMENT  
FONT -B&H-Lucida-Bold-I-Normal-Sans-20-140-100-100-P-127-ISO8859-2
SIZE 14 100 100
FONTBOUNDINGBOX 40 22 -13 -4
STARTPROPERTIES 20
COMMENT Begin LogicalFontDescription
FONTNAME_REGISTRY ""
FOUNDRY "B&H"
FAMILY_NAME "Lucida"
WEIGHT_NAME "Bold"
SLANT "I"
SETWIDTH_NAME "Normal"
ADD_STYLE_NAME "Sans"
PIXEL_SIZE 20
POINT_SIZE 140
RESOLUTION_X 100
RESOLUTION_Y 100
SPACING "P"
AVERAGE_WIDTH 127
CHARSET_REGISTRY "ISO8859"
CHARSET_ENCODING "2"
COMMENT END LogicalFontDescription
FONT_ASCENT 18
FONT_DESCENT 5
DEFAULT_CHAR 0
COPYRIGHT "Copyright Bigelow & Holmes 1986, 1985., Copyright 1996 Cub Soft"
FACE_NAME "Lucida Sans Bold Italic"
ENDPROPERTIES
CHARS 191
STARTCHAR space
ENCODING 32
SWIDTH 343 0
DWIDTH 7 0
BBX 1 1 0 0
BITMAP
00
ENDCHAR
STARTCHAR exclam
ENCODING 33
SWIDTH 343 0
DWIDTH 7 0
BBX 7 14 1 0
BITMAP
1e
1e
3c
3c
3c
3c
38
38
38
30
00
00
f8
f0
ENDCHAR
STARTCHAR quotedbl
ENCODING 34
SWIDTH 530 0
DWIDTH 11 0
BBX 9 6 3 8
BITMAP
e380
e380
e380
c180
4100
4100
ENDCHAR
STARTCHAR numbersign
ENCODING 35
SWIDTH 687 0
DWIDTH 14 0
BBX 13 14 2 0
BITMAP
0398
0330
0770
7ff8
7ff8
0cc0
1dc0
1980
fff0
fff0
3300
6600
6600
cc00
ENDCHAR
STARTCHAR dollar
ENCODING 36
SWIDTH 687 0
DWIDTH 14 0
BBX 12 20 2 -2
BITMAP
0080
0180
0380
0f80
1ff0
1ff0
3d30
1900
1f00
1f00
0f80
07c0
07e0
04e0
04e0
e9c0
ff80
ff00
0c00
1800
ENDCHAR
STARTCHAR percent
ENCODING 37
SWIDTH 908 0
DWIDTH 18 0
BBX 17 14 2 0
BITMAP
3c0300
7e0600
e60c00
c61800
c63000
cc6000
fcc000
798000
030f00
061f80
0c3180
183180
303f00
601e00
ENDCHAR
STARTCHAR ampersand
ENCODING 38
SWIDTH 816 0
DWIDTH 16 0
BBX 15 14 2 0
BITMAP
03e0
07f0
0e18
0e30
0ef0
07c0
1f06
738e
618c
e1dc
e0f8
f0f0
7ff0
3f78
ENDCHAR
STARTCHAR apostrophe
ENCODING 39
SWIDTH 265 0
DWIDTH 5 0
BBX 5 6 3 8
BITMAP
78
78
78
30
30
e0
ENDCHAR
STARTCHAR parenleft
ENCODING 40
SWIDTH 386 0
DWIDTH 8 0
BBX 7 18 2 -4
BITMAP
02
06
0c
18
38
70
70
60
e0
e0
e0
e0
e0
e0
60
70
30
20
ENDCHAR
STARTCHAR parenright
ENCODING 41
SWIDTH 386 0
DWIDTH 8 0
BBX 7 18 1 -4
BITMAP
08
18
1c
0c
0e
0e
0e
0e
0e
0e
0c
1c
18
38
30
60
c0
80
ENDCHAR
STARTCHAR asterisk
ENCODING 42
SWIDTH 464 0
DWIDTH 9 0
BBX 8 7 3 7
BITMAP
1c
49
67
e7
3c
ee
28
ENDCHAR
STARTCHAR plus
ENCODING 43
SWIDTH 687 0
DWIDTH 14 0
BBX 12 11 2 0
BITMAP
0100
0100
0300
0200
fff0
fff0
0400
0c00
0800
0800
0800
ENDCHAR
STARTCHAR comma
ENCODING 44
SWIDTH 343 0
DWIDTH 7 0
BBX 5 7 1 -3
BITMAP
78
78
78
70
30
70
e0
ENDCHAR
STARTCHAR minus
ENCODING 45
SWIDTH 687 0
DWIDTH 14 0
BBX 12 2 2 5
BITMAP
fff0
fff0
ENDCHAR
STARTCHAR period
ENCODING 46
SWIDTH 343 0
DWIDTH 7 0
BBX 5 3 1 0
BITMAP
78
f8
f0
ENDCHAR
STARTCHAR slash
ENCODING 47
SWIDTH 596 0
DWIDTH 12 0
BBX 15 17 0 -3
BITMAP
000e
001c
0038
0030
0070
00e0
00c0
0180
0380
0300
0600
0e00
1c00
1800
3800
7000
e000
ENDCHAR
STARTCHAR zero
ENCODING 48
SWIDTH 687 0
DWIDTH 14 0
BBX 11 14 3 0
BITMAP
0780
1fc0
38c0
70e0
70e0
70e0
e0e0
e1c0
e1c0
e1c0
e380
e380
7f00
3c00
ENDCHAR
STARTCHAR one
ENCODING 49
SWIDTH 687 0
DWIDTH 14 0
BBX 7 14 5 0
BITMAP
7e
fe
3c
3c
3c
3c
3c
78
78
78
78
78
f0
f0
ENDCHAR
STARTCHAR two
ENCODING 50
SWIDTH 687 0
DWIDTH 14 0
BBX 13 14 2 0
BITMAP
0fe0
1ff0
1078
0038
0038
0070
00e0
03c0
0f00
1e00
3800
7800
ffe0
ffe0
ENDCHAR
STARTCHAR three
ENCODING 51
SWIDTH 687 0
DWIDTH 14 0
BBX 12 14 3 0
BITMAP
1fc0
1ff0
30f0
0070
0060
01c0
1f00
3fc0
01e0
00e0
00e0
c1e0
ffc0
ff00
ENDCHAR
STARTCHAR four
ENCODING 52
SWIDTH 687 0
DWIDTH 14 0
BBX 12 14 1 0
BITMAP
0070
00f0
01e0
02e0
04e0
08e0
19e0
31c0
7ff0
fff0
03c0
0380
0380
0380
ENDCHAR
STARTCHAR five
ENCODING 53
SWIDTH 687 0
DWIDTH 14 0
BBX 13 14 2 0
BITMAP
1ff8
1ff8
1800
3800
3000
3f00
3fc0
03e0
00e0
00e0
00e0
c1e0
ffc0
ff00
ENDCHAR
STARTCHAR six
ENCODING 54
SWIDTH 687 0
DWIDTH 14 0
BBX 13 14 2 0
BITMAP
03f8
0ff8
1e18
3c00
7800
7fc0
ffe0
f0f0
e070
e070
e070
70e0
7fc0
1f00
ENDCHAR
STARTCHAR seven
ENCODING 55
SWIDTH 687 0
DWIDTH 14 0
BBX 11 14 4 0
BITMAP
7fe0
ffe0
01c0
0380
0380
0700
0e00
1c00
1800
3800
7000
7000
e000
e000
ENDCHAR
STARTCHAR eight
ENCODING 56
SWIDTH 687 0
DWIDTH 14 0
BBX 12 14 2 0
BITMAP
07c0
1ff0
1870
3030
3870
1fe0
0f80
3fe0
71e0
e060
e060
e0e0
7fc0
3f00
ENDCHAR
STARTCHAR nine
ENCODING 57
SWIDTH 687 0
DWIDTH 14 0
BBX 13 14 2 0
BITMAP
07c0
1ff0
3870
7038
7038
7038
7878
3ff8
1ff0
00f0
01e0
c3c0
ff80
fe00
ENDCHAR
STARTCHAR colon
ENCODING 58
SWIDTH 343 0
DWIDTH 7 0
BBX 6 11 2 0
BITMAP
3c
3c
78
00
00
00
00
00
78
f0
f0
ENDCHAR
STARTCHAR semicolon
ENCODING 59
SWIDTH 343 0
DWIDTH 7 0
BBX 7 14 1 -3
BITMAP
1e
1e
3c
00
00
00
00
7c
78
78
78
38
30
e0
ENDCHAR
STARTCHAR less
ENCODING 60
SWIDTH 687 0
DWIDTH 14 0
BBX 12 10 1 0
BITMAP
0030
01c0
0700
1c00
e000
3000
0c00
0300
00c0
0040
ENDCHAR
STARTCHAR equal
ENCODING 61
SWIDTH 687 0
DWIDTH 14 0
BBX 13 8 2 2
BITMAP
7ff8
7ff8
0000
0000
0000
0000
fff0
fff0
ENDCHAR
STARTCHAR greater
ENCODING 62
SWIDTH 687 0
DWIDTH 14 0
BBX 12 10 1 1
BITMAP
2000
3000
0c00
0300
00c0
0070
0380
0e00
3800
c000
ENDCHAR
STARTCHAR question
ENCODING 63
SWIDTH 539 0
DWIDTH 11 0
BBX 10 14 3 0
BITMAP
7f00
ffc0
83c0
01c0
0180
0700
0e00
1c00
3800
7800
0000
0000
f800
f000
ENDCHAR
STARTCHAR at
ENCODING 64
SWIDTH 833 0
DWIDTH 17 0
BBX 13 14 3 0
BITMAP
07c0
1820
3010
27c8
49c8
91c8
91c8
93c8
b298
9fa0
99e0
4000
2100
1f80
ENDCHAR
STARTCHAR A
ENCODING 65
SWIDTH 771 0
DWIDTH 15 0
BBX 14 14 1 0
BITMAP
00e0
01f0
01f0
03f0
0270
0670
0c78
0c78
1ff8
1ff8
3038
203c
603c
e03c
ENDCHAR
STARTCHAR B
ENCODING 66
SWIDTH 660 0
DWIDTH 13 0
BBX 12 14 2 0
BITMAP
1fe0
3ff0
3c70
3870
3860
38c0
7f80
7fc0
79e0
70e0
70e0
f0e0
ffc0
ff80
ENDCHAR
STARTCHAR C
ENCODING 67
SWIDTH 737 0
DWIDTH 15 0
BBX 15 14 2 0
BITMAP
01fe
07fe
1e06
3c00
7800
7000
e000
e000
e000
e000
f000
7818
7ff8
1fe0
ENDCHAR
STARTCHAR D
ENCODING 68
SWIDTH 822 0
DWIDTH 16 0
BBX 16 14 2 0
BITMAP
1ffc
1ffe
3e1f
3e07
3e07
3c07
3c07
7c0f
780e
781e
783c
7878
fff0
ffc0
ENDCHAR
STARTCHAR E
ENCODING 69
SWIDTH 642 0
DWIDTH 13 0
BBX 13 14 2 0
BITMAP
1ff8
1ff8
3c00
3c00
3c00
3c00
3fe0
7fc0
7800
7800
7800
7800
ffe0
ffe0
ENDCHAR
STARTCHAR F
ENCODING 70
SWIDTH 614 0
DWIDTH 12 0
BBX 13 14 2 0
BITMAP
1ff8
1ff8
3c00
3c00
3c00
3c00
3fc0
7fc0
7800
7800
7800
7000
f000
f000
ENDCHAR
STARTCHAR G
ENCODING 71
SWIDTH 755 0
DWIDTH 15 0
BBX 15 14 2 0
BITMAP
01fe
07fe
1e06
3800
7000
7000
e000
e03c
e078
e078
f0f8
78f8
7ff0
1ff0
ENDCHAR
STARTCHAR H
ENCODING 72
SWIDTH 813 0
DWIDTH 16 0
BBX 16 14 2 0
BITMAP
1e0f
1e0f
3c0e
3c1e
3c1e
3c1e
3ffe
7ffc
783c
783c
783c
703c
f078
f078
ENDCHAR
STARTCHAR I
ENCODING 73
SWIDTH 361 0
DWIDTH 7 0
BBX 7 14 2 0
BITMAP
1e
1e
3c
3c
3c
3c
3c
78
78
78
78
78
f0
f0
ENDCHAR
STARTCHAR J
ENCODING 74
SWIDTH 502 0
DWIDTH 10 0
BBX 11 17 0 -3
BITMAP
01e0
01e0
01e0
01c0
03c0
03c0
03c0
03c0
0380
0780
0780
0780
0780
0700
8f00
fe00
fc00
ENDCHAR
STARTCHAR K
ENCODING 75
SWIDTH 753 0
DWIDTH 15 0
BBX 14 14 2 0
BITMAP
1e1c
1e38
3c70
3ce0
3dc0
3d80
3b00
7f80
79c0
79c0
78e0
70e0
f070
f078
ENDCHAR
STARTCHAR L
ENCODING 76
SWIDTH 623 0
DWIDTH 12 0
BBX 11 14 2 0
BITMAP
1e00
1e00
3c00
3c00
3c00
3c00
3800
7800
7800
7800
7800
7000
ffe0
ffe0
ENDCHAR
STARTCHAR M
ENCODING 77
SWIDTH 940 0
DWIDTH 19 0
BBX 18 14 2 0
BITMAP
1f03c0
1f07c0
3f0780
3f0f80
3f0b80
3f1780
371780
77a700
77e700
73c700
73cf00
638f00
e30e00
e00e00
ENDCHAR
STARTCHAR N
ENCODING 78
SWIDTH 789 0
DWIDTH 16 0
BBX 15 14 2 0
BITMAP
1c0e
1c0e
3e0c
3e1c
3f1c
3f1c
339c
7398
71f8
71f8
70f8
60f8
e070
e070
ENDCHAR
STARTCHAR O
ENCODING 79
SWIDTH 855 0
DWIDTH 17 0
BBX 14 14 3 0
BITMAP
03e0
0ff8
1c38
381c
701c
701c
e01c
e01c
e038
e038
f070
70e0
7fc0
1f00
ENDCHAR
STARTCHAR P
ENCODING 80
SWIDTH 645 0
DWIDTH 13 0
BBX 13 14 2 0
BITMAP
1ff0
1ff8
3c38
3c38
3c38
3870
3fe0
7f80
7800
7800
7000
7000
f000
f000
ENDCHAR
STARTCHAR Q
ENCODING 81
SWIDTH 855 0
DWIDTH 17 0
BBX 14 18 3 -4
BITMAP
03e0
0ff8
1c38
381c
701c
701c
e01c
e01c
e038
e038
f070
70f0
7fe0
1fc0
01f0
00fc
007c
0018
ENDCHAR
STARTCHAR R
ENCODING 82
SWIDTH 708 0
DWIDTH 14 0
BBX 13 14 2 0
BITMAP
1ff0
1ff8
3c38
3c38
3c38
3870
3fe0
7f80
7980
79c0
71c0
70c0
f0e0
f0f0
ENDCHAR
STARTCHAR S
ENCODING 83
SWIDTH 639 0
DWIDTH 13 0
BBX 12 14 2 0
BITMAP
07f0
1ff0
3830
3800
3c00
3e00
1f80
0fc0
03e0
00e0
00e0
41c0
ff80
fe00
ENDCHAR
STARTCHAR T
ENCODING 84
SWIDTH 747 0
DWIDTH 15 0
BBX 15 14 3 0
BITMAP
fffe
fffe
0780
0780
0780
0700
0f00
0f00
0f00
0f00
0f00
1e00
1e00
1e00
ENDCHAR
STARTCHAR U
ENCODING 85
SWIDTH 759 0
DWIDTH 15 0
BBX 14 14 3 0
BITMAP
3c1c
383c
7838
7838
7038
7038
7078
e070
e070
e070
e0f0
f0e0
7fc0
1f80
ENDCHAR
STARTCHAR V
ENCODING 86
SWIDTH 765 0
DWIDTH 15 0
BBX 14 14 3 0
BITMAP
f01c
f018
f030
7030
7860
78e0
78c0
79c0
7980
3b00
3f00
3e00
3e00
3c00
ENDCHAR
STARTCHAR W
ENCODING 87
SWIDTH 991 0
DWIDTH 20 0
BBX 17 14 4 0
BITMAP
e18180
e18100
e38300
e38200
e38600
e58400
e58c00
ed8800
e99800
e9b000
f1b000
71e000
71e000
61c000
ENDCHAR
STARTCHAR X
ENCODING 88
SWIDTH 696 0
DWIDTH 14 0
BBX 15 14 -1 0
BITMAP
1c0e
1e18
0e38
0e70
07e0
07c0
0780
0780
0f80
09c0
19c0
30e0
60e0
c0f0
ENDCHAR
STARTCHAR Y
ENCODING 89
SWIDTH 681 0
DWIDTH 14 0
BBX 12 14 2 0
BITMAP
e070
e0e0
61c0
7380
7300
3600
3e00
3c00
3c00
3800
7800
7800
7800
7800
ENDCHAR
STARTCHAR Z
ENCODING 90
SWIDTH 687 0
DWIDTH 14 0
BBX 14 14 1 0
BITMAP
1ffc
1ffc
0078
00f0
01e0
01c0
0380
0700
0e00
1e00
3c00
7800
7ff0
fff0
ENDCHAR
STARTCHAR bracketleft
ENCODING 91
SWIDTH 386 0
DWIDTH 8 0
BBX 9 17 1 -3
BITMAP
0f80
1f80
1e00
1c00
1c00
1c00
3c00
3800
3800
3800
7800
7800
7000
7000
7000
fc00
f800
ENDCHAR
STARTCHAR backslash
ENCODING 92
SWIDTH 566 0
DWIDTH 11 0
BBX 7 17 3 -3
BITMAP
c0
60
60
60
60
30
30
30
38
18
18
18
0c
0c
0c
0c
06
ENDCHAR
STARTCHAR bracketright
ENCODING 93
SWIDTH 386 0
DWIDTH 8 0
BBX 9 17 0 -3
BITMAP
0f80
1f80
0700
0700
0700
0f00
0f00
0e00
0e00
0e00
1e00
1c00
1c00
1c00
3c00
fc00
f800
ENDCHAR
STARTCHAR asciicircum
ENCODING 94
SWIDTH 687 0
DWIDTH 14 0
BBX 10 10 0 3
BITMAP
0100
0300
0700
0500
0980
1880
3080
20c0
4040
c040
ENDCHAR
STARTCHAR underscore
ENCODING 95
SWIDTH 500 0
DWIDTH 10 0
BBX 9 2 0 -3
BITMAP
ff80
ff80
ENDCHAR
STARTCHAR grave
ENCODING 96
SWIDTH 663 0
DWIDTH 13 0
BBX 5 2 7 12
BITMAP
f0
38
ENDCHAR
STARTCHAR a
ENCODING 97
SWIDTH 681 0
DWIDTH 14 0
BBX 13 11 1 0
BITMAP
07f8
0ff8
1c78
30f0
70f0
61f0
e2f0
e6f0
fde0
f9e0
71e0
ENDCHAR
STARTCHAR b
ENCODING 98
SWIDTH 681 0
DWIDTH 14 0
BBX 13 14 1 0
BITMAP
1f00
1f00
1f00
3e70
3ef8
3ef8
3fb8
7d38
7e30
7c70
7860
79c0
ff80
ff00
ENDCHAR
STARTCHAR c
ENCODING 99
SWIDTH 548 0
DWIDTH 11 0
BBX 9 11 2 0
BITMAP
0780
1f80
3880
7000
7000
e000
e000
e100
e100
7f00
3e00
ENDCHAR
STARTCHAR d
ENCODING 100
SWIDTH 681 0
DWIDTH 14 0
BBX 14 14 1 0
BITMAP
003c
003c
0078
07f8
0ff8
1c78
30f8
70f0
61f0
e2f0
e6f0
fde0
f9e0
71e0
ENDCHAR
STARTCHAR e
ENCODING 101
SWIDTH 612 0
DWIDTH 12 0
BBX 11 11 1 0
BITMAP
07c0
1fe0
3ce0
78e0
71c0
ff80
fe00
f020
f8e0
7fe0
3f00
ENDCHAR
STARTCHAR f
ENCODING 102
SWIDTH 464 0
DWIDTH 9 0
BBX 12 18 1 -4
BITMAP
03f0
0ff0
1e10
3fc0
7f80
3c00
3c00
3c00
3c00
3c00
7800
7800
7800
7800
7800
f000
f000
f000
ENDCHAR
STARTCHAR g
ENCODING 103
SWIDTH 674 0
DWIDTH 13 0
BBX 13 15 1 -4
BITMAP
03f8
0ff0
1c70
38f0
30f0
71f0
6260
6660
7ce0
7ce0
30e0
01c0
c1c0
ff80
7e00
ENDCHAR
STARTCHAR h
ENCODING 104
SWIDTH 675 0
DWIDTH 13 0
BBX 12 14 2 0
BITMAP
1e00
1c00
3c00
3ce0
3df0
3bf0
3be0
7ce0
7ce0
78e0
70e0
70c0
f1c0
f1c0
ENDCHAR
STARTCHAR i
ENCODING 105
SWIDTH 343 0
DWIDTH 7 0
BBX 7 14 1 0
BITMAP
1e
3e
00
3c
3c
3c
78
78
78
78
78
f0
f0
f0
ENDCHAR
STARTCHAR j
ENCODING 106
SWIDTH 407 0
DWIDTH 8 0
BBX 12 18 -1 -4
BITMAP
00f0
01f0
0000
00c0
01c0
01c0
01c0
01c0
0180
0380
0380
0380
0380
0300
0700
8600
fc00
f800
ENDCHAR
STARTCHAR k
ENCODING 107
SWIDTH 666 0
DWIDTH 13 0
BBX 12 14 1 0
BITMAP
1e00
1e00
1c00
3c30
3c60
3cc0
3880
7900
7f80
7b80
7980
71c0
f1c0
f0e0
ENDCHAR
STARTCHAR l
ENCODING 108
SWIDTH 343 0
DWIDTH 7 0
BBX 7 14 1 0
BITMAP
1e
1e
1c
3c
3c
3c
3c
78
78
78
78
70
f0
f0
ENDCHAR
STARTCHAR m
ENCODING 109
SWIDTH 991 0
DWIDTH 20 0
BBX 19 11 1 0
BITMAP
3ce1c0
3df3e0
3bf7e0
7afdc0
7cf9c0
7cf1c0
78f1c0
71e180
f1e180
f1e380
f1e380
ENDCHAR
STARTCHAR n
ENCODING 110
SWIDTH 675 0
DWIDTH 13 0
BBX 12 11 2 0
BITMAP
3ce0
3df0
3bf0
7ae0
7ce0
7ce0
78e0
70e0
f0c0
f1c0
f1c0
ENDCHAR
STARTCHAR o
ENCODING 111
SWIDTH 663 0
DWIDTH 13 0
BBX 10 11 3 0
BITMAP
0f80
1fc0
39c0
71c0
61c0
e1c0
e1c0
e180
e380
7f00
3c00
ENDCHAR
STARTCHAR p
ENCODING 112
SWIDTH 681 0
DWIDTH 14 0
BBX 13 15 1 -4
BITMAP
1e70
1cf8
3df8
3d38
3a38
3c30
3870
7860
78e0
7fc0
7f00
7000
f000
f000
f000
ENDCHAR
STARTCHAR q
ENCODING 113
SWIDTH 681 0
DWIDTH 14 0
BBX 13 15 1 -4
BITMAP
07f8
0ff8
1c78
30f0
70f0
61f0
e2f0
e6f0
fde0
f9e0
71e0
01e0
01e0
03c0
03c0
ENDCHAR
STARTCHAR r
ENCODING 114
SWIDTH 542 0
DWIDTH 11 0
BBX 11 11 2 0
BITMAP
3c60
3dc0
3b40
7a00
7c00
7800
7800
7000
f000
f000
f000
ENDCHAR
STARTCHAR s
ENCODING 115
SWIDTH 527 0
DWIDTH 11 0
BBX 10 11 1 0
BITMAP
0fc0
1fc0
3c00
3c00
3e00
1f00
0f80
0780
c780
ff00
fe00
ENDCHAR
STARTCHAR t
ENCODING 116
SWIDTH 437 0
DWIDTH 9 0
BBX 7 13 2 0
BITMAP
3c
38
fe
fe
78
70
70
70
e0
e0
f4
fc
78
ENDCHAR
STARTCHAR u
ENCODING 117
SWIDTH 675 0
DWIDTH 13 0
BBX 12 11 2 0
BITMAP
38f0
38f0
30f0
70e0
71e0
73e0
73e0
75e0
fdc0
fbc0
73c0
ENDCHAR
STARTCHAR v
ENCODING 118
SWIDTH 630 0
DWIDTH 13 0
BBX 12 11 2 0
BITMAP
f070
f060
f0c0
70c0
7980
7b80
7b00
7f00
7e00
3c00
3c00
ENDCHAR
STARTCHAR w
ENCODING 119
SWIDTH 878 0
DWIDTH 18 0
BBX 17 11 3 0
BITMAP
c0c380
c1e300
c1e700
e2e600
e26e00
e46c00
e47c00
e87800
f87800
f07000
f07000
ENDCHAR
STARTCHAR x
ENCODING 120
SWIDTH 563 0
DWIDTH 11 0
BBX 13 11 0 0
BITMAP
3e38
1e60
1ee0
0fc0
0f80
0780
0f80
1fc0
3bc0
33c0
e1e0
ENDCHAR
STARTCHAR y
ENCODING 121
SWIDTH 633 0
DWIDTH 13 0
BBX 14 15 1 -4
BITMAP
3c0c
3c18
3c30
3c20
3c60
1ec0
1e80
1f80
1f00
1e00
0e00
0c00
1800
3800
f000
ENDCHAR
STARTCHAR z
ENCODING 122
SWIDTH 630 0
DWIDTH 13 0
BBX 12 11 1 0
BITMAP
3ff0
3fe0
00c0
0180
0300
0600
0c00
1800
3000
7fe0
ffe0
ENDCHAR
STARTCHAR braceleft
ENCODING 123
SWIDTH 386 0
DWIDTH 8 0
BBX 8 17 2 -3
BITMAP
0f
1f
1e
1e
1e
0c
0c
78
60
f8
38
78
78
f0
f0
f8
70
ENDCHAR
STARTCHAR bar
ENCODING 124
SWIDTH 259 0
DWIDTH 5 0
BBX 6 17 1 -3
BITMAP
04
0c
08
08
08
10
10
10
30
20
20
20
40
40
40
c0
80
ENDCHAR
STARTCHAR braceright
ENCODING 125
SWIDTH 386 0
DWIDTH 8 0
BBX 8 17 1 -3
BITMAP
0e
1f
0f
0f
1e
1e
1c
1f
06
1e
30
30
78
78
78
f8
f0
ENDCHAR
STARTCHAR asciitilde
ENCODING 126
SWIDTH 687 0
DWIDTH 14 0
BBX 12 5 2 3
BITMAP
3830
7c30
4f60
c3e0
81c0
ENDCHAR
STARTCHAR nobreakspace
ENCODING 160
SWIDTH 343 0
DWIDTH 7 0
BBX 1 1 0 0
BITMAP
00
ENDCHAR
STARTCHAR Aogonek
ENCODING 161
SWIDTH 771 0
DWIDTH 15 0
BBX 14 16 1 -2
BITMAP
00e0
01f0
01f0
03f0
0270
0670
0c78
0c78
1ff8
1ff8
3038
203c
603c
e03c
0300
0780
ENDCHAR
STARTCHAR breve
ENCODING 162
SWIDTH 663 0
DWIDTH 13 0
BBX 7 2 6 12
BITMAP
ee
78
ENDCHAR
STARTCHAR Lstroke
ENCODING 163
SWIDTH 623 0
DWIDTH 12 0
BBX 12 14 1 0
BITMAP
0f00
0f00
0e00
1e80
1f80
1f80
1e00
7c00
fc00
fc00
bc00
3c00
7ff0
7ff0
ENDCHAR
STARTCHAR currency
ENCODING 164
SWIDTH 687 0
DWIDTH 14 0
BBX 16 14 0 0
BITMAP
0001
1003
09cc
0ff8
0630
0c30
0810
0c30
0c70
0fe0
1ff0
3010
c008
8000
ENDCHAR
STARTCHAR Lcaron
ENCODING 165
SWIDTH 720 0
DWIDTH 14 0
BBX 13 16 2 0
BITMAP
0078
0078
1e78
1e30
3c30
3ce0
3c00
3c00
3800
7800
7800
7800
7800
7000
ffe0
ffe0
ENDCHAR
STARTCHAR Sacute
ENCODING 166
SWIDTH 639 0
DWIDTH 13 0
BBX 12 17 2 0
BITMAP
00f0
0380
0000
07f0
1ff0
3830
3800
3c00
3e00
1f80
0fc0
03e0
00e0
00e0
41c0
ff80
fe00
ENDCHAR
STARTCHAR section
ENCODING 167
SWIDTH 687 0
DWIDTH 14 0
BBX 12 18 2 -4
BITMAP
07f0
1ff0
1c30
3c00
3f00
1f80
1fe0
33e0
20e0
7060
7e40
3fc0
1fc0
07c0
03c0
c3c0
ff80
fe00
ENDCHAR
STARTCHAR diaeresis
ENCODING 168
SWIDTH 663 0
DWIDTH 13 0
BBX 7 2 6 12
BITMAP
ee
ee
ENDCHAR
STARTCHAR Scaron
ENCODING 169
SWIDTH 639 0
DWIDTH 13 0
BBX 12 17 2 0
BITMAP
0770
03c0
0000
07f0
1ff0
3830
3800
3c00
3e00
1f80
0fc0
03e0
00e0
00e0
41c0
ff80
fe00
ENDCHAR
STARTCHAR Scedilla
ENCODING 170
SWIDTH 639 0
DWIDTH 13 0
BBX 12 19 2 -5
BITMAP
07f0
1ff0
3830
3800
3c00
3e00
1f80
0fc0
03e0
00e0
00e0
41c0
ff80
fe00
0300
0600
0100
0100
0e00
ENDCHAR
STARTCHAR Tcaron
ENCODING 171
SWIDTH 747 0
DWIDTH 15 0
BBX 15 17 3 0
BITMAP
0770
03c0
0000
fffe
fffe
0780
0780
0780
0700
0f00
0f00
0f00
0f00
0f00
1e00
1e00
1e00
ENDCHAR
STARTCHAR Zacute
ENCODING 172
SWIDTH 687 0
DWIDTH 14 0
BBX 14 17 1 0
BITMAP
0078
01c0
0000
1ffc
1ffc
0078
00f0
01e0
01c0
0380
0700
0e00
1e00
3c00
7800
7ff0
fff0
ENDCHAR
STARTCHAR hyphen
ENCODING 173
SWIDTH 289 0
DWIDTH 6 0
BBX 5 2 2 6
BITMAP
f8
f8
ENDCHAR
STARTCHAR Zcaron
ENCODING 174
SWIDTH 687 0
DWIDTH 14 0
BBX 14 17 1 0
BITMAP
03b8
01e0
0000
1ffc
1ffc
0078
00f0
01e0
01c0
0380
0700
0e00
1e00
3c00
7800
7ff0
fff0
ENDCHAR
STARTCHAR Zabovedot
ENCODING 175
SWIDTH 687 0
DWIDTH 14 0
BBX 14 17 1 0
BITMAP
01c0
01c0
0000
1ffc
1ffc
0078
00f0
01e0
01c0
0380
0700
0e00
1e00
3c00
7800
7ff0
fff0
ENDCHAR
STARTCHAR degree
ENCODING 176
SWIDTH 241 0
DWIDTH 5 0
BBX 1 3 4 11
BITMAP
80
80
80
ENDCHAR
STARTCHAR aogonek
ENCODING 177
SWIDTH 681 0
DWIDTH 14 0
BBX 13 13 1 -2
BITMAP
07f8
0ff8
1c78
30f0
70f0
61f0
e2f0
e6f0
fde0
f9e0
71e0
0300
0780
ENDCHAR
STARTCHAR ogonek
ENCODING 178
SWIDTH 663 0
DWIDTH 13 0
BBX 4 2 4 -3
BITMAP
60
f0
ENDCHAR
STARTCHAR lstroke
ENCODING 179
SWIDTH 343 0
DWIDTH 7 0
BBX 9 14 1 0
BITMAP
0f00
0e00
0e80
1f80
1f80
1f00
3c00
fc00
fc00
bc00
3c00
3800
7800
7800
ENDCHAR
STARTCHAR acute
ENCODING 180
SWIDTH 663 0
DWIDTH 13 0
BBX 6 2 7 12
BITMAP
3c
e0
ENDCHAR
STARTCHAR lcaron
ENCODING 181
SWIDTH 668 0
DWIDTH 13 0
BBX 13 16 1 0
BITMAP
0078
0078
1e78
1e30
1c30
3ce0
3c00
3c00
3c00
7800
7800
7800
7800
7000
f000
f000
ENDCHAR
STARTCHAR sacute
ENCODING 182
SWIDTH 527 0
DWIDTH 11 0
BBX 11 14 1 0
BITMAP
01e0
0700
0000
0fc0
1fc0
3c00
3c00
3e00
1f00
0f80
0780
c780
ff00
fe00
ENDCHAR
STARTCHAR caron
ENCODING 183
SWIDTH 663 0
DWIDTH 13 0
BBX 7 2 6 12
BITMAP
ee
78
ENDCHAR
STARTCHAR cedilla
ENCODING 184
SWIDTH 663 0
DWIDTH 13 0
BBX 4 5 4 -4
BITMAP
30
60
10
10
e0
ENDCHAR
STARTCHAR scaron
ENCODING 185
SWIDTH 527 0
DWIDTH 11 0
BBX 11 14 1 0
BITMAP
0ee0
0780
0000
0fc0
1fc0
3c00
3c00
3e00
1f00
0f80
0780
c780
ff00
fe00
ENDCHAR
STARTCHAR scedilla
ENCODING 186
SWIDTH 527 0
DWIDTH 11 0
BBX 10 16 1 -5
BITMAP
0fc0
1fc0
3c00
3c00
3e00
1f00
0f80
0780
c780
ff00
fe00
0600
0c00
0200
0200
1c00
ENDCHAR
STARTCHAR tcaron
ENCODING 187
SWIDTH 437 0
DWIDTH 9 0
BBX 7 20 2 0
BITMAP
3c
3c
3c
18
18
70
00
3c
38
fe
fe
78
70
70
70
e0
e0
f4
fc
78
ENDCHAR
STARTCHAR zacute
ENCODING 188
SWIDTH 630 0
DWIDTH 13 0
BBX 12 14 1 0
BITMAP
00f0
0380
0000
3ff0
3fe0
00c0
0180
0300
0600
0c00
1800
3000
7fe0
ffe0
ENDCHAR
STARTCHAR doubleacute
ENCODING 189
SWIDTH 663 0
DWIDTH 13 0
BBX 8 2 7 12
BITMAP
3f
dc
ENDCHAR
STARTCHAR zcaron
ENCODING 190
SWIDTH 630 0
DWIDTH 13 0
BBX 12 14 1 0
BITMAP
0770
03c0
0000
3ff0
3fe0
00c0
0180
0300
0600
0c00
1800
3000
7fe0
ffe0
ENDCHAR
STARTCHAR zabovedot
ENCODING 191
SWIDTH 630 0
DWIDTH 13 0
BBX 12 14 1 0
BITMAP
0380
0380
0000
3ff0
3fe0
00c0
0180
0300
0600
0c00
1800
3000
7fe0
ffe0
ENDCHAR
STARTCHAR Racute
ENCODING 192
SWIDTH 708 0
DWIDTH 14 0
BBX 13 17 2 0
BITMAP
00f0
0380
0000
1ff0
1ff8
3c38
3c38
3c38
3870
3fe0
7f80
7980
79c0
71c0
70c0
f0e0
f0f0
ENDCHAR
STARTCHAR Aacute
ENCODING 193
SWIDTH 771 0
DWIDTH 15 0
BBX 14 17 1 0
BITMAP
003c
00e0
0000
00e0
01f0
01f0
03f0
0270
0670
0c78
0c78
1ff8
1ff8
3038
203c
603c
e03c
ENDCHAR
STARTCHAR Acircumflex
ENCODING 194
SWIDTH 771 0
DWIDTH 15 0
BBX 14 17 1 0
BITMAP
00f0
03b8
0000
00e0
01f0
01f0
03f0
0270
0670
0c78
0c78
1ff8
1ff8
3038
203c
603c
e03c
ENDCHAR
STARTCHAR Abreve
ENCODING 195
SWIDTH 771 0
DWIDTH 15 0
BBX 14 17 1 0
BITMAP
01dc
00f0
0000
00e0
01f0
01f0
03f0
0270
0670
0c78
0c78
1ff8
1ff8
3038
203c
603c
e03c
ENDCHAR
STARTCHAR Adiaeresis
ENCODING 196
SWIDTH 771 0
DWIDTH 15 0
BBX 14 17 1 0
BITMAP
01dc
01dc
0000
00e0
01f0
01f0
03f0
0270
0670
0c78
0c78
1ff8
1ff8
3038
203c
603c
e03c
ENDCHAR
STARTCHAR Lacute
ENCODING 197
SWIDTH 623 0
DWIDTH 12 0
BBX 11 17 2 0
BITMAP
0780
1c00
0000
1e00
1e00
3c00
3c00
3c00
3c00
3800
7800
7800
7800
7800
7000
ffe0
ffe0
ENDCHAR
STARTCHAR Cacute
ENCODING 198
SWIDTH 737 0
DWIDTH 15 0
BBX 15 17 2 0
BITMAP
003c
00e0
0000
01fe
07fe
1e06
3c00
7800
7000
e000
e000
e000
e000
f000
7818
7ff8
1fe0
ENDCHAR
STARTCHAR Ccedilla
ENCODING 199
SWIDTH 737 0
DWIDTH 15 0
BBX 15 18 2 -4
BITMAP
01fe
07fe
1e06
3c00
7800
7000
e000
e000
e000
e000
f000
7818
7ff8
1fe0
0c00
0200
0200
1c00
ENDCHAR
STARTCHAR Ccaron
ENCODING 200
SWIDTH 737 0
DWIDTH 15 0
BBX 15 17 2 0
BITMAP
01dc
00f0
0000
01fe
07fe
1e06
3c00
7800
7000
e000
e000
e000
e000
f000
7818
7ff8
1fe0
ENDCHAR
STARTCHAR Eacute
ENCODING 201
SWIDTH 642 0
DWIDTH 13 0
BBX 13 17 2 0
BITMAP
00f0
0380
0000
1ff8
1ff8
3c00
3c00
3c00
3c00
3fe0
7fc0
7800
7800
7800
7800
ffe0
ffe0
ENDCHAR
STARTCHAR Eogonek
ENCODING 202
SWIDTH 642 0
DWIDTH 13 0
BBX 13 16 2 -2
BITMAP
1ff8
1ff8
3c00
3c00
3c00
3c00
3fe0
7fc0
7800
7800
7800
7800
ffe0
ffe0
0300
0780
ENDCHAR
STARTCHAR Ediaeresis
ENCODING 203
SWIDTH 642 0
DWIDTH 13 0
BBX 13 17 2 0
BITMAP
0770
0770
0000
1ff8
1ff8
3c00
3c00
3c00
3c00
3fe0
7fc0
7800
7800
7800
7800
ffe0
ffe0
ENDCHAR
STARTCHAR Ecaron
ENCODING 204
SWIDTH 642 0
DWIDTH 13 0
BBX 13 17 2 0
BITMAP
0770
03c0
0000
1ff8
1ff8
3c00
3c00
3c00
3c00
3fe0
7fc0
7800
7800
7800
7800
ffe0
ffe0
ENDCHAR
STARTCHAR Iacute
ENCODING 205
SWIDTH 361 0
DWIDTH 7 0
BBX 9 17 2 0
BITMAP
0780
1c00
0000
1e00
1e00
3c00
3c00
3c00
3c00
3c00
7800
7800
7800
7800
7800
f000
f000
ENDCHAR
STARTCHAR Icircumflex
ENCODING 206
SWIDTH 361 0
DWIDTH 7 0
BBX 8 17 2 0
BITMAP
1e
77
00
1e
1e
3c
3c
3c
3c
3c
78
78
78
78
78
f0
f0
ENDCHAR
STARTCHAR Dcaron
ENCODING 207
SWIDTH 822 0
DWIDTH 16 0
BBX 16 17 2 0
BITMAP
01dc
00f0
0000
1ffc
1ffe
3e1f
3e07
3e07
3c07
3c07
7c0f
780e
781e
783c
7878
fff0
ffc0
ENDCHAR
STARTCHAR Dstroke
ENCODING 208
SWIDTH 822 0
DWIDTH 16 0
BBX 16 14 1 0
BITMAP
1ffc
1ffe
1f0f
1e07
1e07
3e07
ffc7
ff87
3c0e
380e
781c
7878
7ff0
7fc0
ENDCHAR
STARTCHAR Nacute
ENCODING 209
SWIDTH 789 0
DWIDTH 16 0
BBX 15 17 2 0
BITMAP
0078
01c0
0000
1c0e
1c0e
3e0c
3e1c
3f1c
3f1c
339c
7398
71f8
71f8
70f8
60f8
e070
e070
ENDCHAR
STARTCHAR Ncaron
ENCODING 210
SWIDTH 789 0
DWIDTH 16 0
BBX 15 17 2 0
BITMAP
03b8
01e0
0000
1c0e
1c0e
3e0c
3e1c
3f1c
3f1c
339c
7398
71f8
71f8
70f8
60f8
e070
e070
ENDCHAR
STARTCHAR Oacute
ENCODING 211
SWIDTH 855 0
DWIDTH 17 0
BBX 14 17 3 0
BITMAP
00f0
0380
0000
03e0
0ff8
1c38
381c
701c
701c
e01c
e01c
e038
e038
f070
70e0
7fc0
1f00
ENDCHAR
STARTCHAR Ocircumflex
ENCODING 212
SWIDTH 855 0
DWIDTH 17 0
BBX 14 17 3 0
BITMAP
01e0
0770
0000
03e0
0ff8
1c38
381c
701c
701c
e01c
e01c
e038
e038
f070
70e0
7fc0
1f00
ENDCHAR
STARTCHAR Odoubleacute
ENCODING 213
SWIDTH 855 0
DWIDTH 17 0
BBX 14 17 3 0
BITMAP
00fc
0370
0000
03e0
0ff8
1c38
381c
701c
701c
e01c
e01c
e038
e038
f070
70e0
7fc0
1f00
ENDCHAR
STARTCHAR Odiaeresis
ENCODING 214
SWIDTH 855 0
DWIDTH 17 0
BBX 14 17 3 0
BITMAP
0770
0770
0000
03e0
0ff8
1c38
381c
701c
701c
e01c
e01c
e038
e038
f070
70e0
7fc0
1f00
ENDCHAR
STARTCHAR multiply
ENCODING 215
SWIDTH 687 0
DWIDTH 14 0
BBX 13 11 2 0
BITMAP
1008
3018
1860
0cc0
0580
0200
0d00
1980
30c0
c060
8040
ENDCHAR
STARTCHAR Rcaron
ENCODING 216
SWIDTH 708 0
DWIDTH 14 0
BBX 13 17 2 0
BITMAP
0770
03c0
0000
1ff0
1ff8
3c38
3c38
3c38
3870
3fe0
7f80
7980
79c0
71c0
70c0
f0e0
f0f0
ENDCHAR
STARTCHAR Uring
ENCODING 217
SWIDTH 759 0
DWIDTH 15 0
BBX 14 17 3 0
BITMAP
0380
0380
0000
3c1c
383c
7838
7838
7038
7038
7078
e070
e070
e070
e0f0
f0e0
7fc0
1f80
ENDCHAR
STARTCHAR Uacute
ENCODING 218
SWIDTH 759 0
DWIDTH 15 0
BBX 14 17 3 0
BITMAP
00f0
0380
0000
3c1c
383c
7838
7838
7038
7038
7078
e070
e070
e070
e0f0
f0e0
7fc0
1f80
ENDCHAR
STARTCHAR Udoubleacute
ENCODING 219
SWIDTH 759 0
DWIDTH 15 0
BBX 14 17 3 0
BITMAP
01f8
06e0
0000
3c1c
383c
7838
7838
7038
7038
7078
e070
e070
e070
e0f0
f0e0
7fc0
1f80
ENDCHAR
STARTCHAR Udiaeresis
ENCODING 220
SWIDTH 759 0
DWIDTH 15 0
BBX 14 17 3 0
BITMAP
0770
0770
0000
3c1c
383c
7838
7838
7038
7038
7078
e070
e070
e070
e0f0
f0e0
7fc0
1f80
ENDCHAR
STARTCHAR Yacute
ENCODING 221
SWIDTH 681 0
DWIDTH 14 0
BBX 12 17 2 0
BITMAP
03c0
0e00
0000
e070
e0e0
61c0
7380
7300
3600
3e00
3c00
3c00
3800
7800
7800
7800
7800
ENDCHAR
STARTCHAR Tcedilla
ENCODING 222
SWIDTH 747 0
DWIDTH 15 0
BBX 15 19 3 -5
BITMAP
fffe
fffe
0780
0780
0780
0700
0f00
0f00
0f00
0f00
0f00
1e00
1e00
1e00
00c0
0180
0040
0040
0380
ENDCHAR
STARTCHAR ssharp
ENCODING 223
SWIDTH 708 0
DWIDTH 14 0
BBX 13 18 1 -4
BITMAP
03e0
0ff0
0e70
1e70
1ee0
1cc0
1dc0
3de0
3cf0
3878
3838
7a38
7bf0
7be0
7000
7000
f000
f000
ENDCHAR
STARTCHAR racute
ENCODING 224
SWIDTH 542 0
DWIDTH 11 0
BBX 11 14 2 0
BITMAP
01e0
0700
0000
3c60
3dc0
3b40
7a00
7c00
7800
7800
7000
f000
f000
f000
ENDCHAR
STARTCHAR aacute
ENCODING 225
SWIDTH 681 0
DWIDTH 14 0
BBX 13 14 1 0
BITMAP
00f0
0380
0000
07f8
0ff8
1c78
30f0
70f0
61f0
e2f0
e6f0
fde0
f9e0
71e0
ENDCHAR
STARTCHAR acircumflex
ENCODING 226
SWIDTH 681 0
DWIDTH 14 0
BBX 13 14 1 0
BITMAP
01e0
0770
0000
07f8
0ff8
1c78
30f0
70f0
61f0
e2f0
e6f0
fde0
f9e0
71e0
ENDCHAR
STARTCHAR abreve
ENCODING 227
SWIDTH 681 0
DWIDTH 14 0
BBX 13 14 1 0
BITMAP
03b8
01e0
0000
07f8
0ff8
1c78
30f0
70f0
61f0
e2f0
e6f0
fde0
f9e0
71e0
ENDCHAR
STARTCHAR adiaeresis
ENCODING 228
SWIDTH 681 0
DWIDTH 14 0
BBX 13 14 1 0
BITMAP
0770
0770
0000
07f8
0ff8
1c78
30f0
70f0
61f0
e2f0
e6f0
fde0
f9e0
71e0
ENDCHAR
STARTCHAR lacute
ENCODING 229
SWIDTH 343 0
DWIDTH 7 0
BBX 10 17 1 0
BITMAP
03c0
0e00
0000
1e00
1e00
1c00
3c00
3c00
3c00
3c00
7800
7800
7800
7800
7000
f000
f000
ENDCHAR
STARTCHAR cacute
ENCODING 230
SWIDTH 548 0
DWIDTH 11 0
BBX 11 14 2 0
BITMAP
01e0
0700
0000
0780
1f80
3880
7000
7000
e000
e000
e100
e100
7f00
3e00
ENDCHAR
STARTCHAR ccedilla
ENCODING 231
SWIDTH 548 0
DWIDTH 11 0
BBX 9 15 2 -4
BITMAP
0780
1f80
3880
7000
7000
e000
e000
e100
e100
7f00
3e00
3000
0800
0800
7000
ENDCHAR
STARTCHAR ccaron
ENCODING 232
SWIDTH 548 0
DWIDTH 11 0
BBX 11 14 2 0
BITMAP
0ee0
0780
0000
0780
1f80
3880
7000
7000
e000
e000
e100
e100
7f00
3e00
ENDCHAR
STARTCHAR eacute
ENCODING 233
SWIDTH 612 0
DWIDTH 12 0
BBX 11 14 1 0
BITMAP
01e0
0700
0000
07c0
1fe0
3ce0
78e0
71c0
ff80
fe00
f020
f8e0
7fe0
3f00
ENDCHAR
STARTCHAR eogonek
ENCODING 234
SWIDTH 612 0
DWIDTH 12 0
BBX 11 13 1 -2
BITMAP
07c0
1fe0
3ce0
78e0
71c0
ff80
fe00
f020
f8e0
7fe0
3f00
0600
0f00
ENDCHAR
STARTCHAR ediaeresis
ENCODING 235
SWIDTH 612 0
DWIDTH 12 0
BBX 11 14 1 0
BITMAP
0ee0
0ee0
0000
07c0
1fe0
3ce0
78e0
71c0
ff80
fe00
f020
f8e0
7fe0
3f00
ENDCHAR
STARTCHAR ecaron
ENCODING 236
SWIDTH 612 0
DWIDTH 12 0
BBX 12 14 1 0
BITMAP
0770
03c0
0000
07c0
1fe0
3ce0
78e0
71c0
ff80
fe00
f020
f8e0
7fe0
3f00
ENDCHAR
STARTCHAR iacute
ENCODING 237
SWIDTH 343 0
DWIDTH 7 0
BBX 9 14 2 0
BITMAP
0780
1c00
0000
3c00
3c00
3c00
7800
7800
7800
7800
7800
f000
f000
f000
ENDCHAR
STARTCHAR icircumflex
ENCODING 238
SWIDTH 343 0
DWIDTH 7 0
BBX 8 14 2 0
BITMAP
1e
77
00
3c
3c
3c
78
78
78
78
78
f0
f0
f0
ENDCHAR
STARTCHAR dcaron
ENCODING 239
SWIDTH 1028 0
DWIDTH 20 0
BBX 20 16 1 0
BITMAP
0000f0
0000f0
003cf0
003c60
007860
07f9c0
0ff800
1c7800
30f800
70f000
61f000
e2f000
e6f000
fde000
f9e000
71e000
ENDCHAR
STARTCHAR dstroke
ENCODING 240
SWIDTH 977 0
DWIDTH 19 0
BBX 19 14 1 0
BITMAP
003c00
0fffe0
007800
07f800
0ff800
1c7800
30f800
70f000
61f000
e2f000
e6f000
fde000
f9e000
71e000
ENDCHAR
STARTCHAR nacute
ENCODING 241
SWIDTH 675 0
DWIDTH 13 0
BBX 12 14 2 0
BITMAP
00f0
0380
0000
3ce0
3df0
3bf0
7ae0
7ce0
7ce0
78e0
70e0
f0c0
f1c0
f1c0
ENDCHAR
STARTCHAR ncaron
ENCODING 242
SWIDTH 675 0
DWIDTH 13 0
BBX 12 14 2 0
BITMAP
0770
03c0
0000
3ce0
3df0
3bf0
7ae0
7ce0
7ce0
78e0
70e0
f0c0
f1c0
f1c0
ENDCHAR
STARTCHAR oacute
ENCODING 243
SWIDTH 663 0
DWIDTH 13 0
BBX 11 14 3 0
BITMAP
01e0
0700
0000
0f80
1fc0
39c0
71c0
61c0
e1c0
e1c0
e180
e380
7f00
3c00
ENDCHAR
STARTCHAR ocircumflex
ENCODING 244
SWIDTH 663 0
DWIDTH 13 0
BBX 10 14 3 0
BITMAP
0780
1dc0
0000
0f80
1fc0
39c0
71c0
61c0
e1c0
e1c0
e180
e380
7f00
3c00
ENDCHAR
STARTCHAR odoubleacute
ENCODING 245
SWIDTH 663 0
DWIDTH 13 0
BBX 12 14 3 0
BITMAP
03f0
0dc0
0000
0f80
1fc0
39c0
71c0
61c0
e1c0
e1c0
e180
e380
7f00
3c00
ENDCHAR
STARTCHAR odiaeresis
ENCODING 246
SWIDTH 663 0
DWIDTH 13 0
BBX 11 14 3 0
BITMAP
0ee0
0ee0
0000
0f80
1fc0
39c0
71c0
61c0
e1c0
e1c0
e180
e380
7f00
3c00
ENDCHAR
STARTCHAR division
ENCODING 247
SWIDTH 687 0
DWIDTH 14 0
BBX 12 11 2 0
BITMAP
0380
0700
0000
0000
fff0
fff0
0000
0000
0000
0e00
1c00
ENDCHAR
STARTCHAR rcaron
ENCODING 248
SWIDTH 542 0
DWIDTH 11 0
BBX 11 14 2 0
BITMAP
0ee0
0780
0000
3c60
3dc0
3b40
7a00
7c00
7800
7800
7000
f000
f000
f000
ENDCHAR
STARTCHAR uring
ENCODING 249
SWIDTH 675 0
DWIDTH 13 0
BBX 12 14 2 0
BITMAP
0380
0380
0000
38f0
38f0
30f0
70e0
71e0
73e0
73e0
75e0
fdc0
fbc0
73c0
ENDCHAR
STARTCHAR uacute
ENCODING 250
SWIDTH 675 0
DWIDTH 13 0
BBX 12 14 2 0
BITMAP
01e0
0700
0000
38f0
38f0
30f0
70e0
71e0
73e0
73e0
75e0
fdc0
fbc0
73c0
ENDCHAR
STARTCHAR udoubleacute
ENCODING 251
SWIDTH 675 0
DWIDTH 13 0
BBX 13 14 2 0
BITMAP
01f8
06e0
0000
38f0
38f0
30f0
70e0
71e0
73e0
73e0
75e0
fdc0
fbc0
73c0
ENDCHAR
STARTCHAR udiaeresis
ENCODING 252
SWIDTH 675 0
DWIDTH 13 0
BBX 12 14 2 0
BITMAP
0ee0
0ee0
0000
38f0
38f0
30f0
70e0
71e0
73e0
73e0
75e0
fdc0
fbc0
73c0
ENDCHAR
STARTCHAR yacute
ENCODING 253
SWIDTH 633 0
DWIDTH 13 0
BBX 14 18 1 -4
BITMAP
00f0
0380
0000
3c0c
3c18
3c30
3c20
3c60
1ec0
1e80
1f80
1f00
1e00
0e00
0c00
1800
3800
f000
ENDCHAR
STARTCHAR tcedilla
ENCODING 254
SWIDTH 437 0
DWIDTH 9 0
BBX 7 18 2 -5
BITMAP
3c
38
fe
fe
78
70
70
70
e0
e0
f4
fc
78
0c
18
04
04
38
ENDCHAR
STARTCHAR abovedot
ENCODING 255
SWIDTH 663 0
DWIDTH 13 0
BBX 3 2 8 12
BITMAP
e0
e0
ENDCHAR
ENDFONT
